<svg height="480pt" viewBox="0 -31 480 479" width="480pt" xmlns="http://www.w3.org/2000/svg"><path d="m472 48.5h-24v-40c0-4.417969-3.582031-8-8-8h-136c-31 0-53.007812 9.390625-64 26.503906-10.992188-17.113281-33-26.503906-64-26.503906h-136c-4.417969 0-8 3.582031-8 8v40h-24c-4.417969 0-8 3.582031-8 8v320c0 4.417969 3.582031 8 8 8h172.289062c7.640626 8.617188 31.199219 32 61.78125 32 20.882813 0 40.296876-10.761719 57.769532-32h172.160156c4.417969 0 8-3.582031 8-8v-320c0-4.417969-3.582031-8-8-8zm-168-32h128v304h-128c-24.710938 0-43.726562 5.953125-56 17.03125v-281.03125c0-26.542969 18.839844-40 56-40zm-256 0h128c37.160156 0 56 13.457031 56 40v281.03125c-12.273438-11.078125-31.289062-17.03125-56-17.03125h-128zm416 352h-168c-2.46875 0-4.804688 1.136719-6.320312 3.089844-14.894532 19.148437-30.886719 28.910156-47.527344 28.910156h-.082032c-28.796874 0-51.542968-28.632812-51.765624-28.921875-1.515626-1.941406-3.839844-3.078125-6.304688-3.078125h-168v-304h16v264c0 4.417969 3.582031 8 8 8h136c37.160156 0 56 13.457031 56 40 0 4.417969 3.582031 8 8 8s8-3.582031 8-8c0-26.542969 18.839844-40 56-40h136c4.417969 0 8-3.582031 8-8v-264h16zm0 0"/><path d="m88 80.5h104c4.417969 0 8-3.582031 8-8s-3.582031-8-8-8h-104c-4.417969 0-8 3.582031-8 8s3.582031 8 8 8zm0 0"/><path d="m88 128.5h104c4.417969 0 8-3.582031 8-8s-3.582031-8-8-8h-104c-4.417969 0-8 3.582031-8 8s3.582031 8 8 8zm0 0"/><path d="m88 176.5h104c4.417969 0 8-3.582031 8-8s-3.582031-8-8-8h-104c-4.417969 0-8 3.582031-8 8s3.582031 8 8 8zm0 0"/><path d="m88 224.5h104c4.417969 0 8-3.582031 8-8s-3.582031-8-8-8h-104c-4.417969 0-8 3.582031-8 8s3.582031 8 8 8zm0 0"/><path d="m88 272.5h104c4.417969 0 8-3.582031 8-8s-3.582031-8-8-8h-104c-4.417969 0-8 3.582031-8 8s3.582031 8 8 8zm0 0"/><path d="m288 80.5h104c4.417969 0 8-3.582031 8-8s-3.582031-8-8-8h-104c-4.417969 0-8 3.582031-8 8s3.582031 8 8 8zm0 0"/><path d="m288 128.5h104c4.417969 0 8-3.582031 8-8s-3.582031-8-8-8h-104c-4.417969 0-8 3.582031-8 8s3.582031 8 8 8zm0 0"/><path d="m288 176.5h104c4.417969 0 8-3.582031 8-8s-3.582031-8-8-8h-104c-4.417969 0-8 3.582031-8 8s3.582031 8 8 8zm0 0"/><path d="m288 224.5h104c4.417969 0 8-3.582031 8-8s-3.582031-8-8-8h-104c-4.417969 0-8 3.582031-8 8s3.582031 8 8 8zm0 0"/><path d="m288 272.5h104c4.417969 0 8-3.582031 8-8s-3.582031-8-8-8h-104c-4.417969 0-8 3.582031-8 8s3.582031 8 8 8zm0 0"/></svg>